<svg width="60" height="60" viewBox="0 0 60 60" fill="none" xmlns="http://www.w3.org/2000/svg">
<g clip-path="url(#clip0_24_17)">
<path d="M52.95 38.111L59.3813 41.3285C60.2063 41.741 60.2063 42.9185 59.3813 43.331L31.0013 57.5248C30.6903 57.6799 30.3475 57.7607 30 57.7607C29.6525 57.7607 29.3097 57.6799 28.9988 57.5248L0.618753 43.331C0.433359 43.2376 0.27755 43.0945 0.168687 42.9177C0.0598236 42.7409 0.00218081 42.5374 0.00218081 42.3298C0.00218081 42.1222 0.0598236 41.9186 0.168687 41.7418C0.27755 41.5651 0.433359 41.422 0.618753 41.3285L7.05375 38.111L26.9925 48.0823C28.8863 49.0273 31.1175 49.0273 33.0075 48.0823L52.9463 38.1073L52.95 38.111ZM28.9988 0.236026C29.3097 0.0808613 29.6525 9.15527e-05 30 9.15527e-05C30.3475 9.15527e-05 30.6903 0.0808613 31.0013 0.236026L59.3813 14.426C59.5665 14.5201 59.7221 14.6636 59.8308 14.8406C59.9394 15.0177 59.997 15.2214 59.997 15.4292C59.997 15.6369 59.9394 15.8406 59.8308 16.0177C59.7221 16.1947 59.5665 16.3382 59.3813 16.4323L31.0013 30.6185C30.6903 30.7737 30.3475 30.8545 30 30.8545C29.6525 30.8545 29.3097 30.7737 28.9988 30.6185L0.618753 16.4323C0.432376 16.3392 0.275614 16.196 0.166048 16.0189C0.0564812 15.8417 -0.0015564 15.6375 -0.0015564 15.4292C-0.0015564 15.2208 0.0564812 15.0166 0.166048 14.8394C0.275614 14.6623 0.432376 14.5191 0.618753 14.426L28.9988 0.236026Z" fill="black"/>
<path d="M52.95 24.66L59.3812 27.8775C60.2062 28.29 60.2062 29.4675 59.3812 29.88L31.0012 44.07C30.6903 44.2252 30.3475 44.3059 30 44.3059C29.6525 44.3059 29.3097 44.2252 28.9987 44.07L0.618739 29.88C0.433345 29.7866 0.277536 29.6435 0.168673 29.4667C0.0598095 29.2899 0.00216675 29.0864 0.00216675 28.8788C0.00216675 28.6711 0.0598095 28.4676 0.168673 28.2908C0.277536 28.114 0.433345 27.971 0.618739 27.8775L7.05374 24.66L26.9925 34.6313C28.8862 35.5763 31.1175 35.5763 33.0075 34.6313L52.95 24.66Z" fill="black"/>
</g>
<defs>
<clipPath id="clip0_24_17">
<rect width="60" height="60" fill="white"/>
</clipPath>
</defs>
</svg>
