<svg width="50" height="50" viewBox="0 0 50 50" fill="none" xmlns="http://www.w3.org/2000/svg">
<path d="M37.5 43.75L43.75 37.5L42.2917 36.0417L38.5417 39.7917V31.25H36.4584V39.7917L32.7084 36.0417L31.25 37.5L37.5 43.75ZM20.8334 12.5H29.1667V8.33333H20.8334V12.5ZM37.5 47.9167C34.6181 47.9167 32.1611 46.9007 30.1292 44.8687C28.0972 42.8368 27.082 40.3805 27.0834 37.5C27.0834 34.618 28.0993 32.1611 30.1313 30.1292C32.1632 28.0972 34.6195 27.0819 37.5 27.0833C40.382 27.0833 42.8389 28.0993 44.8709 30.1312C46.9028 32.1632 47.9181 34.6194 47.9167 37.5C47.9167 40.3819 46.9007 42.8389 44.8688 44.8708C42.8368 46.9028 40.3806 47.918 37.5 47.9167ZM8.33336 43.75C7.18752 43.75 6.20627 43.3417 5.38961 42.525C4.57294 41.7083 4.1653 40.7278 4.16669 39.5833V16.6667C4.16669 15.5208 4.57502 14.5396 5.39169 13.7229C6.20836 12.9062 7.18891 12.4986 8.33336 12.5H16.6667V8.33333C16.6667 7.18749 17.075 6.20624 17.8917 5.38958C18.7084 4.57291 19.6889 4.16527 20.8334 4.16666H29.1667C30.3125 4.16666 31.2938 4.57499 32.1104 5.39166C32.9271 6.20833 33.3347 7.18888 33.3334 8.33333V12.5H41.6667C42.8125 12.5 43.7938 12.9083 44.6104 13.725C45.4271 14.5417 45.8347 15.5222 45.8334 16.6667V25.5729C44.6181 24.7049 43.2986 24.0451 41.875 23.5937C40.4514 23.1424 38.9931 22.9167 37.5 22.9167C33.4722 22.9167 30.0347 24.3403 27.1875 27.1875C24.3403 30.0347 22.9167 33.4722 22.9167 37.5C22.9167 38.5764 23.0299 39.6444 23.2563 40.7042C23.4827 41.7639 23.8382 42.7792 24.3229 43.75H8.33336Z" fill="black"/>
</svg>
