<svg width="30" height="30" viewBox="0 0 30 30" fill="none" xmlns="http://www.w3.org/2000/svg">
<g clip-path="url(#clip0_3_18)">
<path fill-rule="evenodd" clip-rule="evenodd" d="M19.6337 14.1163C19.868 14.3507 19.9997 14.6686 19.9997 15C19.9997 15.3315 19.868 15.6494 19.6337 15.8838L12.5624 22.955C12.4471 23.0744 12.3092 23.1696 12.1567 23.2351C12.0042 23.3007 11.8402 23.3351 11.6742 23.3366C11.5082 23.338 11.3436 23.3064 11.19 23.2435C11.0364 23.1807 10.8968 23.0879 10.7794 22.9705C10.6621 22.8531 10.5693 22.7136 10.5064 22.56C10.4436 22.4063 10.4119 22.2417 10.4134 22.0758C10.4148 21.9098 10.4493 21.7458 10.5148 21.5933C10.5803 21.4408 10.6756 21.3028 10.7949 21.1875L16.9824 15L10.7949 8.81251C10.5672 8.57676 10.4412 8.26101 10.4441 7.93326C10.4469 7.60551 10.5784 7.292 10.8102 7.06024C11.0419 6.82848 11.3554 6.69702 11.6832 6.69417C12.0109 6.69132 12.3267 6.81731 12.5624 7.04501L19.6337 14.1163Z" fill="black"/>
</g>
<defs>
<clipPath id="clip0_3_18">
<rect width="30" height="30" fill="white"/>
</clipPath>
</defs>
</svg>
